<svg id="Layer_1" data-name="Layer 1" xmlns="http://www.w3.org/2000/svg" xmlns:xlink="http://www.w3.org/1999/xlink" viewBox="0 0 627 363.3"><defs><linearGradient id="linear-gradient" x1="-5" y1="88.65" x2="594.34" y2="88.65" gradientUnits="userSpaceOnUse"><stop offset="0" stop-color="#fff"/><stop offset="1"/></linearGradient></defs><path d="M13,12H67.6c51.2,0,77.2,24.4,77.2,69.8v1.4c0,45.6-26.8,71.8-77.2,71.8H13ZM66,120.2c22.2,0,31.6-11,31.6-36V82.6c0-26.2-9.8-35.8-31.8-35.8H58.4v73.4Z" transform="translate(0 16.5)" fill="url(#linear-gradient)"/><path d="M154.4,104v-1.6c0-34,26-55,58-55,29.4,0,54.4,16.8,54.4,54.4v9.6H194.2c1,12.6,8.4,19.4,19.6,19.4,11,0,15.2-5.2,16.4-11.2H267c-3.2,24-21.4,38-54.6,38C179,157.6,154.4,138.6,154.4,104Zm74.4-13.2c-.4-11.2-5.8-18-16.4-18-9.6,0-16.4,6.2-18,18Z" transform="translate(0 16.5)" fill="url(#linear-gradient)"/><path d="M271.6,151.2l42.8-71.4H276.2V50.4h94.2v4l-44.8,71.4h42V155h-96Z" transform="translate(0 16.5)" fill="url(#linear-gradient)"/><path d="M375.4,151.2l42.79-71.4H380V50.4h94.2v4l-44.8,71.4h42V155h-96Z" transform="translate(0 16.5)" fill="url(#linear-gradient)"/><text transform="translate(0 171.5)" font-size="200" fill="#072e23" font-family="GraphikTrial-Black, Graphik Trial" font-weight="800">D<tspan x="150.2" y="0" letter-spacing="0em">e</tspan><tspan x="270" y="0" letter-spacing="0.01em">z</tspan><tspan x="373.79" y="0" letter-spacing="0em">z</tspan></text><text y="16.5"/><text transform="translate(187 324.5)" font-size="200" fill="#169976" font-family="GraphikTrial-Black, Graphik Trial" font-weight="800">D<tspan x="150.2" y="0" letter-spacing="-0.02em">e</tspan><tspan x="266.8" y="0" letter-spacing="-0.08em">v</tspan><tspan x="372" y="0">.</tspan></text></svg>